HIERARCHY
ROOT root
{
	OFFSET	0	13.1	24.9
	CHANNELS 6  Xposition Yposition Zposition Xrotation Yrotation Zrotation
	JOINT spine_1
	{
		OFFSET	0	9.99999	0
		CHANNELS 3  Xrotation Yrotation Zrotation
		JOINT spine_2
		{
			OFFSET	0	112	-10
			CHANNELS 3  Xrotation Yrotation Zrotation
			JOINT spine_3
			{
				OFFSET	0	206.5	19.3
				CHANNELS 3  Xrotation Yrotation Zrotation
				JOINT spine_4
				{
					OFFSET	0	110.4	14.6
					CHANNELS 3  Xrotation Yrotation Zrotation
					JOINT neck_1
					{
						OFFSET	0	71.8	-50.3
						CHANNELS 3  Xrotation Yrotation Zrotation
						JOINT neck_2
						{
							OFFSET	0	86.2	-25.8
							CHANNELS 3  Xrotation Yrotation Zrotation
							JOINT head_ee
							{
								OFFSET	0	179.8	-8.7
								CHANNELS 3  Xrotation Yrotation Zrotation
								End Site
								{
									OFFSET	1	0	0
								}
							}
						}
					}
					JOINT left_clavicle
					{
						OFFSET	-43.2	22.4	-70.8
						CHANNELS 3  Xrotation Yrotation Zrotation
						JOINT left_shoulder
						{
							OFFSET	-93.9	-5.79999	48.7
							CHANNELS 3  Xrotation Yrotation Zrotation
							JOINT left_elbow
							{
								OFFSET	-291.4	-30.8	15.2
								CHANNELS 3  Xrotation Yrotation Zrotation
								JOINT left_lowarm_twist
								{
									OFFSET	-110.7	-3.89999	13.6
									CHANNELS 3  Xrotation Yrotation Zrotation
									JOINT left_hand
									{
										OFFSET	-110.7	-3.89999	13.6
										CHANNELS 3  Xrotation Yrotation Zrotation
										JOINT left_ee
										{
											OFFSET	-80.8	-5.10001	12.1
											CHANNELS 3  Xrotation Yrotation Zrotation
											End Site
											{
												OFFSET	1	0	0
											}
										}
									}
								}
							}
						}
					}
					JOINT right_clavicle
					{
						OFFSET	43.2	22.4	-70.8
						CHANNELS 3  Xrotation Yrotation Zrotation
						JOINT right_shoulder
						{
							OFFSET	93.9	-5.79999	48.7
							CHANNELS 3  Xrotation Yrotation Zrotation
							JOINT right_elbow
							{
								OFFSET	291.4	-30.8	15.2
								CHANNELS 3  Xrotation Yrotation Zrotation
								JOINT right_lowarm_twist
								{
									OFFSET	110.7	-3.89999	13.6
									CHANNELS 3  Xrotation Yrotation Zrotation
									JOINT right_hand
									{
										OFFSET	110.7	-3.89999	13.6
										CHANNELS 3  Xrotation Yrotation Zrotation
										JOINT right_ee
										{
											OFFSET	80.8	-5.10001	12.1
											CHANNELS 3  Xrotation Yrotation Zrotation
											End Site
											{
												OFFSET	1	0	0
											}
										}
									}
								}
							}
						}
					}
				}
			}
		}
	}
	JOINT left_hip
	{
		OFFSET	-82.8	-127.5	0.300001
		CHANNELS 3  Xrotation Yrotation Zrotation
		JOINT left_knee
		{
			OFFSET	-28.2	-396.7	2.2
			CHANNELS 3  Xrotation Yrotation Zrotation
			JOINT left_ankle
			{
				OFFSET	-11.7	-411.3	35.4
				CHANNELS 3  Xrotation Yrotation Zrotation
				JOINT left_toes
				{
					OFFSET	0	-60	-88.6
					CHANNELS 3  Xrotation Yrotation Zrotation
					JOINT left_foot_ee
					{
						OFFSET	-22.5	-16.5	-42.2
						CHANNELS 3  Xrotation Yrotation Zrotation
						End Site
						{
							OFFSET	1	0	0
						}
					}
				}
			}
		}
	}
	JOINT right_hip
	{
		OFFSET	82.8	-127.5	0.300001
		CHANNELS 3  Xrotation Yrotation Zrotation
		JOINT right_knee
		{
			OFFSET	28.2	-396.7	2.2
			CHANNELS 3  Xrotation Yrotation Zrotation
			JOINT right_ankle
			{
				OFFSET	11.7	-411.3	35.4
				CHANNELS 3  Xrotation Yrotation Zrotation
				JOINT right_toes
				{
					OFFSET	0	-60	-88.6
					CHANNELS 3  Xrotation Yrotation Zrotation
					JOINT right_foot_ee
					{
						OFFSET	22.5	-16.5	-42.2
						CHANNELS 3  Xrotation Yrotation Zrotation
						End Site
						{
							OFFSET	1	0	0
						}
					}
				}
			}
		}
	}
}
MOTION
Frames: 14
Frame Time: 0.02
1372.05 701.618 -1475.22 -22.3276419671 67.195409585 22.5188092248 1.66602 -0.223281 -2.86715 1.6706 -0.0404613 -2.87554 1.67276 0.482636 -2.83507 1.66155 0.0290254 -2.87568 4.04625 -0.304639 8.54274 4.38213 -7.91861 9.67001 -0.0 0.0 -0.0 12.3564 -26.6794 24.1167 -3.39201 -25.1758 64.8798 0.867208 -23.2476 0.178391 78.9979 -3.7235 -8.55227 6.8554 34.0578 60.309 -0.0 0.0 -0.0 -0.844535 -21.0818 -1.23907 -14.5786 7.03983 -70.511 0.996941 26.2822 -0.232755 1.43079 -0.0482103 0.176376 -0.859887 -28.9973 -6.66451 0.0 0.0 0.0 -2.85403 -16.7836 -2.77856 -17.6803 0.316038 2.68405 36.6421 -15.0507 -4.85827 3.42278 -0.0 -0.0 -0.0 0.0 -0.0 31.5915 3.8513 1.12273 -8.41085 -0.253846 -1.26469 9.74519 -11.4117 1.389 -17.7787 0.0 0.0 0.0 0.0 0.0 
1372.05 701.618 -1475.22 -22.3210121923 67.1886199804 22.5116170908 1.66602 -0.223281 -2.86715 1.6706 -0.0404613 -2.87554 1.67276 0.482636 -2.83507 1.66155 0.0290254 -2.87568 4.04625 -0.304639 8.54274 4.38213 -7.91861 9.67001 -0.0 0.0 -0.0 12.3564 -26.6794 24.1167 -3.39201 -25.1758 64.8798 0.867208 -23.2476 0.178391 78.9979 -3.7235 -8.55227 6.8554 34.0578 60.309 -0.0 0.0 -0.0 -0.844535 -21.0818 -1.23907 -14.5786 7.03983 -70.511 0.996941 26.2822 -0.232755 1.43079 -0.0482103 0.176376 -0.859887 -28.9973 -6.66451 0.0 0.0 0.0 -2.85403 -16.7836 -2.77856 -17.6803 0.316038 2.68405 36.6421 -15.0507 -4.85827 3.42278 -0.0 -0.0 -0.0 0.0 -0.0 31.5915 3.8513 1.12273 -8.41085 -0.253846 -1.26469 9.74519 -11.4117 1.389 -17.7787 0.0 0.0 0.0 0.0 0.0 
1372.05 701.618 -1475.22 -21.8993581273 66.7473822505 22.0534439037 1.66602 -0.223281 -2.86715 1.6706 -0.0404613 -2.87554 1.67276 0.482636 -2.83507 1.66155 0.0290254 -2.87568 4.04625 -0.304639 8.54274 4.38213 -7.91861 9.67001 -0.0 0.0 -0.0 12.3564 -26.6794 24.1167 -3.39201 -25.1758 64.8798 0.867208 -23.2476 0.178391 78.9979 -3.7235 -8.55227 6.8554 34.0578 60.309 -0.0 0.0 -0.0 -0.844535 -21.0818 -1.23907 -14.5786 7.03983 -70.511 0.996941 26.2822 -0.232755 1.43079 -0.0482103 0.176376 -0.859887 -28.9973 -6.66451 0.0 0.0 0.0 -2.85403 -16.7836 -2.77856 -17.6803 0.316038 2.68405 36.6421 -15.0507 -4.85827 3.42278 -0.0 -0.0 -0.0 0.0 -0.0 31.5915 3.8513 1.12273 -8.41085 -0.253846 -1.26469 9.74519 -11.4117 1.389 -17.7787 0.0 0.0 0.0 0.0 0.0 
1372.05 701.618 -1475.22 -21.5964928051 66.4185716647 21.7233960975 1.66602 -0.223281 -2.86715 1.6706 -0.0404613 -2.87554 1.67276 0.482636 -2.83507 1.66155 0.0290254 -2.87568 4.04625 -0.304639 8.54274 4.38213 -7.91861 9.67001 -0.0 0.0 -0.0 12.3564 -26.6794 24.1167 -3.39201 -25.1758 64.8798 0.867208 -23.2476 0.178391 78.9979 -3.7235 -8.55227 6.8554 34.0578 60.309 -0.0 0.0 -0.0 -0.844535 -21.0818 -1.23907 -14.5786 7.03983 -70.511 0.996941 26.2822 -0.232755 1.43079 -0.0482103 0.176376 -0.859887 -28.9973 -6.66451 0.0 0.0 0.0 -2.85403 -16.7836 -2.77856 -17.6803 0.316038 2.68405 36.6421 -15.0507 -4.85827 3.42278 -0.0 -0.0 -0.0 0.0 -0.0 31.5915 3.8513 1.12273 -8.41085 -0.253846 -1.26469 9.74519 -11.4117 1.389 -17.7787 0.0 0.0 0.0 0.0 0.0 
1358.97478613 701.404 -1484.35907316 -20.4467767302 66.3492398947 20.3005452344 1.6277 -0.197216 -2.99537 1.63269 -0.00630085 -3.00184 1.63319 0.541297 -2.95268 1.62103 0.0684017 -3.00107 1.95834 -2.0032 6.81988 2.21723 -9.25593 7.37175 -0.0 0.0 -0.0 12.2476 -26.5495 23.8833 -4.20704 -24.9433 66.4951 0.818318 -22.0661 0.159557 78.6882 -3.68815 -8.5341 6.79301 33.1282 59.843 -0.0 0.0 -0.0 -0.995327 -21.0861 -1.02295 -13.9445 6.14669 -70.285 1.15819 29.8434 -0.30865 0.108241 -0.0038014 0.013301 -0.487308 -28.9244 -8.65447 0.0 0.0 0.0 -2.13312 -17.0127 -2.33199 -23.7086 0.233204 3.60491 33.3925 -11.5199 -4.43867 5.95698 -0.0 -0.0 -0.0 0.0 -0.0 31.2305 3.81205 1.23101 -10.3993 -0.286529 -1.56806 12.3568 -15.5715 1.75804 -18.0859 0.0 0.0 0.0 0.0 0.0 
1343.75131254 701.793 -1506.02722786 -17.5148614468 66.8195932647 18.2292602147 1.61583 -0.0433166 -3.0973 1.62116 0.153765 -3.09379 1.6129 0.716763 -3.01362 1.6003 0.232062 -3.08891 0.456081 -2.10643 5.30549 0.614884 -8.1103 5.54053 -0.0 0.0 -0.0 11.9795 -26.7583 23.2467 -7.83138 -24.0214 67.8629 0.744788 -20.2513 0.133013 79.1247 -3.73801 -8.55966 6.71427 31.7056 59.2684 -0.0 0.0 -0.0 -1.05807 -21.0635 -0.929575 -13.126 5.66172 -70.3327 1.32662 33.3101 -0.396889 -1.50869 0.0555952 -0.184635 -0.00479857 -29.1699 -11.3766 0.0 0.0 0.0 0.407379 -18.4652 -1.76156 -31.8275 -0.0302592 4.82203 24.7372 -6.138 -3.38415 11.5118 -0.0 -0.0 -0.0 0.0 -0.0 30.6909 2.72393 -0.689476 -14.5733 -0.3208 -2.20743 18.4883 -20.2358 2.60805 -18.5266 0.0 0.0 0.0 0.0 0.0 
1330.55183047 706.145 -1520.96342455 -15.8242257522 66.5258804864 17.0783261712 1.55996 0.0767322 -3.03795 1.56505 0.2698 -3.02693 1.55079 0.821913 -2.92576 1.53902 0.349751 -3.01875 -0.596851 -2.13468 4.22453 -0.493359 -7.2433 4.2788 -0.0 0.0 -0.0 11.581 -26.8034 22.3351 -11.4764 -23.1479 69.1467 0.652864 -17.9218 0.102948 80.2837 -3.8713 -8.62568 6.413 28.9974 56.1927 -0.0 0.0 -0.0 -0.781887 -21.0544 -1.32544 -11.0132 2.50097 -70.97 1.44954 35.6785 -0.466516 -5.04521 0.204851 -0.611316 0.176376 -28.9362 -12.2934 0.0 0.0 0.0 1.93079 -19.4908 -2.04742 -38.0553 -0.347703 5.7241 16.7942 -2.31079 -2.35933 15.1275 -0.0 -0.0 -0.0 0.0 -0.0 30.254 1.50708 -1.79897 -17.4094 -0.317481 -2.64252 23.7665 -24.5682 3.34581 -18.6106 0.0 0.0 0.0 0.0 0.0 
1331.52235142 706.145 -1521.82545745 -15.1048363295 65.3652216326 16.2905652008 1.55996 0.0767322 -3.03795 1.56505 0.2698 -3.02693 1.55079 0.821913 -2.92576 1.53902 0.349751 -3.01875 -0.596851 -2.13468 4.22453 -0.493359 -7.2433 4.2788 -0.0 0.0 -0.0 11.581 -26.8034 22.3351 -11.4764 -23.1479 69.1467 0.652864 -17.9218 0.102948 80.2837 -3.8713 -8.62568 6.413 28.9974 56.1927 -0.0 0.0 -0.0 -0.781887 -21.0544 -1.32544 -11.0132 2.50097 -70.97 1.44954 35.6785 -0.466516 -5.04521 0.204851 -0.611316 0.176376 -28.9362 -12.2934 0.0 0.0 0.0 1.93079 -19.4908 -2.04742 -38.0553 -0.347703 5.7241 16.7942 -2.31079 -2.35933 15.1275 -0.0 -0.0 -0.0 0.0 -0.0 30.254 1.50708 -1.79897 -17.4094 -0.317481 -2.64252 23.7665 -24.5682 3.34581 -18.6106 0.0 0.0 0.0 0.0 0.0 
1311.06066866 707.398 -1543.74034489 -13.9261792303 66.5727608647 14.7460128018 1.4362 -0.124919 -2.71055 1.44028 0.0477489 -2.71301 1.43831 0.550785 -2.65698 1.42848 0.124414 -2.71058 -2.27538 -1.67798 3.14369 -2.22395 -5.51578 3.07191 -0.0 0.0 -0.0 11.2403 -27.4906 21.4828 -12.8292 -20.3583 69.4554 0.581031 -16.0573 0.0819559 85.482 -4.48433 -8.88811 5.26274 24.0326 44.9006 -0.0 0.0 -0.0 0.182144 -6.96404 -1.15328 -6.58749 -15.7758 -74.5654 1.45928 35.8604 -0.472208 -11.0839 0.519675 -1.31619 -0.341478 -27.8544 -9.05176 0.0 0.0 0.0 7.79622 -16.9464 -2.09258 -50.8616 -1.29803 7.44536 6.65328 -1.44559 -0.969507 18.7529 -0.0 -0.0 -0.0 0.0 -0.0 29.5942 -1.61351 -2.25686 -20.779 -0.285565 -3.15846 34.2236 -26.6548 4.62736 -20.279 0.0 0.0 0.0 0.0 0.0 
1296.51862154 717.702 -1568.73366084 -14.2900035962 68.7103294237 15.3091157949 1.10821 -0.0162021 -2.68898 1.11222 0.154875 -2.68457 1.10547 0.66602 -2.6053 1.09608 0.246358 -2.67773 -3.23701 -1.06344 2.737 -3.20457 -4.05972 2.68381 -0.0 0.0 -0.0 10.3386 -24.819 19.7454 -15.1803 -17.4116 71.2051 0.505361 -14.0548 0.0622962 85.5313 -4.49025 -8.89033 4.43768 20.8804 37.6725 -0.0 0.0 -0.0 0.634146 0.968014 -1.11742 -6.50895 -24.3093 -76.751 1.41003 34.9318 -0.443679 -13.8141 0.686098 -1.62333 -0.694099 -26.5189 -6.58065 0.0 0.0 0.0 15.1572 -16.3559 0.274499 -56.4008 -1.82413 8.11712 -1.39509 0.727819 0.206701 20.1322 -0.0 -0.0 -0.0 0.0 -0.0 27.7921 -3.31447 -2.33581 -23.0069 -0.247823 -3.49823 38.1787 -25.5592 5.00718 -21.6443 0.0 0.0 0.0 0.0 0.0 
1226.12188359 726.739 -1610.27869223 -24.2646058546 75.5560325008 24.6827363996 1.99269 0.10474 -2.58928 1.99638 0.269234 -2.57738 1.98386 0.719709 -2.48951 1.97535 0.317643 -2.57186 -4.06762 0.0319745 6.6463 -3.92259 -5.03075 6.85368 -0.0 0.0 -0.0 6.52989 -8.36159 12.4645 -15.883 -8.81507 73.5072 0.708174 -19.3313 0.120615 83.1154 -4.20232 -8.77554 3.41446 18.2657 29.5032 -0.0 0.0 -0.0 1.28672 21.1084 -0.320894 -7.40277 -27.1064 -79.1394 0.870192 23.3191 -0.179571 -9.70598 0.441306 -1.15829 -0.237525 -25.9444 -8.9208 0.0 0.0 0.0 25.0685 -20.2619 7.22465 -59.8507 -2.18388 8.50898 -22.2233 4.16792 3.35291 19.6202 -0.0 -0.0 -0.0 0.0 -0.0 24.2936 -5.07573 -3.97164 -25.0204 -0.202369 -3.80386 31.1957 -17.1284 4.0909 -24.7689 0.0 0.0 0.0 0.0 0.0 
1232.04896864 726.739 -1616.41340184 -20.8794014175 73.2850710917 21.1691811592 1.99269 0.10474 -2.58928 1.99638 0.269234 -2.57738 1.98386 0.719709 -2.48951 1.97535 0.317643 -2.57186 -4.06762 0.0319745 6.6463 -3.92259 -5.03075 6.85368 -0.0 0.0 -0.0 6.52989 -8.36159 12.4645 -15.883 -8.81507 73.5072 0.708174 -19.3313 0.120615 83.1154 -4.20232 -8.77554 3.41446 18.2657 29.5032 -0.0 0.0 -0.0 1.28672 21.1084 -0.320894 -7.40277 -27.1064 -79.1394 0.870192 23.3191 -0.179571 -9.70598 0.441306 -1.15829 -0.237525 -25.9444 -8.9208 0.0 0.0 0.0 25.0685 -20.2619 7.22465 -59.8507 -2.18388 8.50898 -22.2233 4.16792 3.35291 19.6202 -0.0 -0.0 -0.0 0.0 -0.0 24.2936 -5.07573 -3.97164 -25.0204 -0.202369 -3.80386 31.1957 -17.1284 4.0909 -24.7689 0.0 0.0 0.0 0.0 0.0 
1218.39128379 736.002 -1634.82680165 -20.5270880977 72.8748174741 21.0387075522 2.15248 -0.187071 -2.6401 2.15635 -0.0187557 -2.64665 2.15683 0.440313 -2.60986 2.14733 0.022759 -2.64662 -6.12515 0.624741 7.9037 -5.93667 -4.66793 8.09942 -0.0 0.0 -0.0 5.19999 -1.08401 10.017 -14.7466 -4.77716 73.3715 0.706522 -19.2896 0.120069 85.1337 -4.44254 -8.87228 2.84597 15.8027 24.8616 -0.0 0.0 -0.0 0.917066 25.2979 0.92512 -8.91989 -21.9389 -79.5158 1.13872 29.4259 -0.299022 -6.5347 0.275557 -0.788158 -0.323923 -27.4798 -9.00928 0.0 0.0 0.0 32.6444 -23.1505 9.04855 -61.9776 -2.41727 8.73964 -19.2043 7.06177 2.88741 17.4964 -0.0 -0.0 -0.0 0.0 -0.0 22.954 -4.1836 -4.85992 -25.4938 -0.190125 -3.87547 31.0312 -18.6269 4.09536 -25.3917 0.0 0.0 0.0 0.0 0.0 
1225.79017273 736.002 -1641.63332617 -17.9442215022 70.4191505115 18.3180967624 2.15248 -0.187071 -2.6401 2.15635 -0.0187557 -2.64665 2.15683 0.440313 -2.60986 2.14733 0.022759 -2.64662 -6.12515 0.624741 7.9037 -5.93667 -4.66793 8.09942 -0.0 0.0 -0.0 5.19999 -1.08401 10.017 -14.7466 -4.77716 73.3715 0.706522 -19.2896 0.120069 85.1337 -4.44254 -8.87228 2.84597 15.8027 24.8616 -0.0 0.0 -0.0 0.917066 25.2979 0.92512 -8.91989 -21.9389 -79.5158 1.13872 29.4259 -0.299022 -6.5347 0.275557 -0.788158 -0.323923 -27.4798 -9.00928 0.0 0.0 0.0 32.6444 -23.1505 9.04855 -61.9776 -2.41727 8.73964 -19.2043 7.06177 2.88741 17.4964 -0.0 -0.0 -0.0 0.0 -0.0 22.954 -4.1836 -4.85992 -25.4938 -0.190125 -3.87547 31.0312 -18.6269 4.09536 -25.3917 0.0 0.0 0.0 0.0 0.0 
